<?xml version="1.0" encoding="utf-8"?><svg id="svg" version="1.1" xmlns="http://www.w3.org/2000/svg" xmlns:xlink="http://www.w3.org/1999/xlink" width="400" height="351.99999999999994" viewBox="0, 0, 400,351.99999999999994"><g id="svgg"><path id="path0" d="M194.667 25.357 C 182.660 31.556,161.893 44.006,152.790 50.463 C 142.026 58.098,132.792 66.746,123.123 78.250 L 120.937 80.851 119.405 86.812 C 109.140 126.763,90.870 165.488,74.102 182.835 L 70.737 186.316 70.737 187.727 C 70.737 201.308,82.738 225.231,99.724 245.509 C 119.218 268.782,135.673 280.937,155.019 286.355 C 163.723 288.793,169.526 292.843,190.666 311.238 C 192.574 312.899,184.028 293.384,179.537 285.827 C 174.791 277.839,172.178 275.001,166.080 271.210 C 133.950 251.236,109.576 223.757,100.865 197.689 L 99.602 193.909 101.485 189.376 C 111.797 164.540,123.715 137.760,128.842 127.901 C 130.058 125.563,132.586 120.049,134.458 115.649 C 149.101 81.249,160.688 69.781,195.302 55.433 L 199.866 53.541 205.126 55.732 C 239.121 69.892,250.692 81.421,265.261 115.649 C 267.134 120.049,269.661 125.563,270.877 127.901 C 276.019 137.789,287.892 164.467,298.235 189.376 L 300.117 193.909 298.854 197.689 C 290.143 223.757,265.769 251.236,233.639 271.210 C 227.542 275.001,224.928 277.839,220.182 285.827 C 215.691 293.384,207.145 312.899,209.053 311.238 C 230.193 292.843,235.996 288.793,244.701 286.355 C 264.047 280.937,280.502 268.782,299.996 245.509 C 316.981 225.231,328.982 201.308,328.982 187.727 L 328.982 186.316 325.617 182.835 C 308.850 165.488,290.580 126.763,280.314 86.812 L 278.783 80.851 276.596 78.250 C 261.607 60.417,249.882 51.105,221.474 34.472 C 213.633 29.881,200.356 22.698,199.793 22.743 C 199.753 22.746,197.446 23.922,194.667 25.357 M164.985 101.441 C 163.430 102.012,162.611 102.624,161.677 103.915 C 160.633 105.355,160.665 105.382,162.609 104.698 C 165.270 103.763,166.143 104.105,170.495 107.789 C 172.643 109.608,172.654 109.635,171.321 109.885 C 167.983 110.511,165.687 112.177,165.421 114.167 C 165.111 116.472,167.072 117.053,175.172 117.053 C 185.499 117.053,188.985 115.857,189.401 112.172 C 189.568 110.685,189.480 110.636,188.262 111.542 C 186.117 113.138,185.040 112.693,177.539 107.116 C 170.163 101.631,167.609 100.477,164.985 101.441 M231.278 101.424 C 229.394 101.950,227.808 102.948,221.987 107.271 C 214.708 112.676,213.591 113.130,211.457 111.542 C 210.239 110.636,210.151 110.685,210.319 112.172 C 210.734 115.857,214.220 117.053,224.548 117.053 C 232.647 117.053,234.608 116.472,234.299 114.167 C 234.032 112.177,231.736 110.511,228.398 109.885 C 227.066 109.635,227.077 109.608,229.224 107.789 C 233.577 104.105,234.449 103.763,237.110 104.698 C 239.076 105.389,239.120 105.345,237.963 103.825 C 236.288 101.627,233.780 100.726,231.278 101.424 M198.456 118.784 C 197.174 119.146,195.989 120.268,195.319 121.754 C 194.704 123.117,193.269 123.397,191.480 122.505 C 188.424 120.980,184.421 127.014,186.206 130.453 C 186.710 131.424,187.576 132.108,188.491 132.259 C 189.062 132.352,189.108 132.185,188.759 131.287 C 188.357 130.256,191.804 127.764,194.272 127.301 C 195.186 127.130,195.262 127.176,195.597 128.102 C 195.792 128.642,196.394 129.472,196.933 129.946 C 199.120 131.865,203.134 130.836,204.122 128.102 C 204.457 127.176,204.534 127.130,205.447 127.301 C 208.224 127.822,211.303 130.204,210.825 131.462 C 210.245 132.986,212.491 132.205,213.447 130.550 C 215.398 127.172,211.367 120.945,208.239 122.505 C 206.450 123.397,205.015 123.117,204.401 121.754 C 203.252 119.209,200.978 118.072,198.456 118.784 M190.596 141.103 C 175.575 142.648,166.542 158.296,165.345 184.842 C 165.029 191.863,164.487 194.584,162.702 198.105 C 161.686 200.111,161.404 200.175,161.399 198.403 C 161.390 195.100,160.269 192.140,157.573 188.300 C 153.515 182.521,152.127 174.448,153.367 163.841 C 153.879 159.460,153.726 158.715,152.149 157.899 C 149.139 156.343,143.719 173.520,143.719 184.616 L 143.719 187.308 145.329 189.858 C 147.723 193.653,150.005 196.644,152.424 199.158 C 157.402 204.333,158.838 206.826,159.181 210.895 C 159.989 220.469,168.175 229.911,183.051 238.425 L 186.313 240.292 187.774 239.309 C 193.201 235.656,206.518 235.656,211.945 239.309 L 213.406 240.292 216.668 238.425 C 231.544 229.911,239.730 220.469,240.538 210.895 C 240.881 206.826,242.317 204.333,247.296 199.158 C 249.714 196.644,251.996 193.653,254.391 189.858 L 256.000 187.308 256.000 184.616 C 256.000 175.515,253.059 164.272,249.213 158.666 C 248.398 157.480,248.389 157.476,247.570 157.899 C 245.993 158.715,245.841 159.460,246.353 163.841 C 247.592 174.448,246.204 182.521,242.147 188.300 C 239.450 192.140,238.329 195.100,238.320 198.403 C 238.315 200.175,238.034 200.111,237.017 198.105 C 235.233 194.584,234.690 191.863,234.374 184.842 C 233.274 160.421,225.131 144.461,212.351 141.675 C 203.221 139.684,199.707 141.772,202.518 147.517 C 204.131 150.814,205.780 151.532,212.534 151.878 C 218.027 152.159,218.746 152.387,220.126 154.281 C 224.674 160.519,228.034 174.320,228.489 188.632 C 228.642 193.455,228.880 196.930,229.122 197.895 L 229.510 199.439 228.539 200.982 C 225.463 205.870,220.947 210.225,216.795 212.310 L 215.345 213.038 213.427 212.078 C 211.345 211.035,209.873 209.692,208.474 207.558 C 205.910 203.645,193.809 203.645,191.245 207.558 C 189.847 209.692,188.375 211.035,186.292 212.078 L 184.374 213.038 182.924 212.310 C 178.772 210.225,174.257 205.870,171.181 200.982 L 170.209 199.439 170.597 197.895 C 170.839 196.930,171.077 193.455,171.230 188.632 C 171.686 174.320,175.046 160.519,179.593 154.281 C 180.974 152.387,181.693 152.159,187.186 151.878 C 193.939 151.532,195.588 150.814,197.201 147.517 C 199.675 142.462,197.541 140.389,190.596 141.103 M193.331 155.556 C 183.678 156.548,180.658 159.387,183.409 164.881 C 185.691 169.439,187.463 170.206,187.090 166.473 C 186.663 162.201,188.946 161.270,199.860 161.270 C 210.773 161.270,213.056 162.201,212.629 166.473 C 212.256 170.206,214.028 169.439,216.311 164.881 C 217.908 161.690,217.588 159.376,215.342 157.891 C 212.202 155.812,201.689 154.697,193.331 155.556 M186.215 185.963 C 183.156 187.267,183.028 190.250,185.912 193.008 C 188.377 195.365,188.398 195.368,199.860 195.368 C 211.321 195.368,211.342 195.365,213.807 193.008 C 215.843 191.061,216.253 190.095,215.712 188.521 C 214.689 185.544,212.127 184.803,211.075 187.181 C 209.741 190.198,207.041 191.154,199.860 191.154 C 192.678 191.154,189.978 190.198,188.644 187.181 C 188.009 185.745,187.420 185.450,186.215 185.963 " stroke="none" fill="#fbfbfb" fill-rule="evenodd"></path><path id="path1" d="M195.509 8.810 C 168.978 19.621,139.945 38.292,115.354 60.356 C 111.234 64.052,110.562 64.773,110.293 65.783 C 104.875 86.131,93.488 113.771,83.559 130.677 C 75.400 144.569,59.706 167.777,51.771 177.684 L 48.511 181.754 48.655 185.263 C 49.246 199.671,57.231 223.506,66.803 239.439 C 87.726 274.264,115.337 297.018,150.574 308.474 C 154.723 309.823,155.443 310.164,161.076 313.457 C 175.990 322.177,190.548 333.702,197.970 342.667 C 200.021 345.144,199.641 345.171,202.023 342.374 C 209.953 333.061,223.760 322.159,238.644 313.457 C 244.277 310.164,244.997 309.823,249.145 308.474 C 284.382 297.018,311.993 274.264,332.916 239.439 C 342.450 223.570,350.467 199.694,351.059 185.404 L 351.210 181.754 347.949 177.684 C 340.021 167.788,324.323 144.575,316.160 130.677 C 306.231 113.771,294.844 86.131,289.427 65.783 C 289.158 64.773,288.485 64.052,284.366 60.356 C 259.701 38.226,229.867 19.075,203.855 8.675 C 199.655 6.996,199.974 6.991,195.509 8.810 M203.583 24.597 C 212.919 29.271,230.842 39.779,241.867 47.043 C 255.317 55.904,265.519 65.071,276.596 78.250 L 278.783 80.851 280.314 86.812 C 290.580 126.763,308.850 165.488,325.617 182.835 L 328.982 186.316 328.982 187.727 C 328.982 201.308,316.981 225.231,299.996 245.509 C 280.502 268.782,264.047 280.937,244.701 286.355 C 235.996 288.793,230.193 292.843,209.053 311.238 C 207.145 312.899,215.691 293.384,220.182 285.827 C 224.928 277.839,227.542 275.001,233.639 271.210 C 265.769 251.236,290.143 223.757,298.854 197.689 L 300.117 193.909 298.235 189.376 C 287.892 164.467,276.019 137.789,270.877 127.901 C 269.661 125.563,267.134 120.049,265.261 115.649 C 250.692 81.421,239.121 69.892,205.126 55.732 L 199.866 53.541 195.302 55.433 C 160.688 69.781,149.101 81.249,134.458 115.649 C 132.586 120.049,130.058 125.563,128.842 127.901 C 123.715 137.760,111.797 164.540,101.485 189.376 L 99.602 193.909 100.865 197.689 C 109.576 223.757,133.950 251.236,166.080 271.210 C 172.178 275.001,174.791 277.839,179.537 285.827 C 184.028 293.384,192.574 312.899,190.666 311.238 C 169.526 292.843,163.723 288.793,155.019 286.355 C 135.673 280.937,119.218 268.782,99.724 245.509 C 82.738 225.231,70.737 201.308,70.737 187.727 L 70.737 186.316 74.102 182.835 C 90.870 165.488,109.140 126.763,119.405 86.812 L 120.937 80.851 123.123 78.250 C 134.912 64.225,145.152 55.187,160.281 45.456 C 172.076 37.869,198.165 22.872,199.793 22.743 C 199.834 22.739,201.540 23.574,203.583 24.597 M170.322 102.210 C 171.290 102.677,174.538 104.885,177.539 107.116 C 185.040 112.693,186.117 113.138,188.262 111.542 C 189.480 110.636,189.568 110.685,189.401 112.172 C 188.985 115.857,185.499 117.053,175.172 117.053 C 167.072 117.053,165.111 116.472,165.421 114.167 C 165.687 112.177,167.983 110.511,171.321 109.885 C 172.654 109.635,172.643 109.608,170.495 107.789 C 166.143 104.105,165.270 103.763,162.609 104.698 C 160.665 105.382,160.633 105.355,161.677 103.915 C 163.781 101.009,166.658 100.442,170.322 102.210 M235.909 101.978 C 236.904 102.529,239.057 104.896,238.798 105.155 C 238.743 105.211,237.983 105.005,237.110 104.698 C 234.449 103.763,233.577 104.105,229.224 107.789 C 227.077 109.608,227.066 109.635,228.398 109.885 C 231.736 110.511,234.032 112.177,234.299 114.167 C 234.608 116.472,232.647 117.053,224.548 117.053 C 214.220 117.053,210.734 115.857,210.319 112.172 C 210.151 110.685,210.239 110.636,211.457 111.542 C 213.591 113.130,214.708 112.676,221.987 107.271 C 230.612 100.866,232.560 100.126,235.909 101.978 M201.123 118.765 C 202.535 119.149,203.708 120.218,204.401 121.754 C 205.015 123.117,206.450 123.397,208.239 122.505 C 211.367 120.945,215.398 127.172,213.447 130.550 C 212.491 132.205,210.245 132.986,210.825 131.462 C 211.303 130.204,208.224 127.822,205.447 127.301 C 204.534 127.130,204.457 127.176,204.122 128.102 C 203.927 128.642,203.326 129.472,202.786 129.946 C 200.600 131.865,196.586 130.836,195.597 128.102 C 195.262 127.176,195.186 127.130,194.272 127.301 C 191.804 127.764,188.357 130.256,188.759 131.287 C 189.108 132.185,189.062 132.352,188.491 132.259 C 187.576 132.108,186.710 131.424,186.206 130.453 C 184.421 127.014,188.424 120.980,191.480 122.505 C 193.269 123.397,194.704 123.117,195.319 121.754 C 195.989 120.268,197.174 119.146,198.456 118.784 C 199.769 118.413,199.829 118.413,201.123 118.765 M195.310 141.228 C 198.431 141.771,199.033 143.773,197.201 147.517 C 195.588 150.814,193.939 151.532,187.186 151.878 C 181.693 152.159,180.974 152.387,179.593 154.281 C 175.046 160.519,171.686 174.320,171.230 188.632 C 171.077 193.455,170.839 196.930,170.597 197.895 L 170.209 199.439 171.181 200.982 C 174.257 205.870,178.772 210.225,182.924 212.310 L 184.374 213.038 186.292 212.078 C 188.375 211.035,189.847 209.692,191.245 207.558 C 193.809 203.645,205.910 203.645,208.474 207.558 C 209.873 209.692,211.345 211.035,213.427 212.078 L 215.345 213.038 216.795 212.310 C 220.947 210.225,225.463 205.870,228.539 200.982 L 229.510 199.439 229.122 197.895 C 228.880 196.930,228.642 193.455,228.489 188.632 C 228.034 174.320,224.674 160.519,220.126 154.281 C 218.746 152.387,218.027 152.159,212.534 151.878 C 205.780 151.532,204.131 150.814,202.518 147.517 C 199.707 141.772,203.221 139.684,212.351 141.675 C 225.131 144.461,233.274 160.421,234.374 184.842 C 234.690 191.863,235.233 194.584,237.017 198.105 C 238.034 200.111,238.315 200.175,238.320 198.403 C 238.329 195.100,239.450 192.140,242.147 188.300 C 246.204 182.521,247.592 174.448,246.353 163.841 C 245.841 159.460,245.993 158.715,247.570 157.899 C 250.580 156.343,256.000 173.520,256.000 184.616 L 256.000 187.308 254.391 189.858 C 251.996 193.653,249.714 196.644,247.296 199.158 C 242.317 204.333,240.881 206.826,240.538 210.895 C 239.730 220.469,231.544 229.911,216.668 238.425 L 213.406 240.292 211.945 239.309 C 206.518 235.656,193.201 235.656,187.774 239.309 L 186.313 240.292 183.051 238.425 C 168.175 229.911,159.989 220.469,159.181 210.895 C 158.838 206.826,157.402 204.333,152.424 199.158 C 150.005 196.644,147.723 193.653,145.329 189.858 L 143.719 187.308 143.719 184.616 C 143.719 175.515,146.660 164.272,150.507 158.666 C 151.321 157.480,151.330 157.476,152.149 157.899 C 153.726 158.715,153.879 159.460,153.367 163.841 C 152.127 174.448,153.515 182.521,157.573 188.300 C 160.269 192.140,161.390 195.100,161.399 198.403 C 161.404 200.175,161.686 200.111,162.702 198.105 C 164.487 194.584,165.029 191.863,165.345 184.842 C 166.542 158.296,175.575 142.648,190.596 141.103 C 192.613 140.896,193.545 140.920,195.310 141.228 M205.916 155.536 C 216.101 156.560,219.119 159.273,216.311 164.881 C 214.028 169.439,212.256 170.206,212.629 166.473 C 213.056 162.201,210.773 161.270,199.860 161.270 C 188.946 161.270,186.663 162.201,187.090 166.473 C 187.463 170.206,185.691 169.439,183.409 164.881 C 181.811 161.690,182.132 159.376,184.377 157.891 C 187.504 155.821,197.682 154.709,205.916 155.536 M188.644 187.181 C 189.978 190.198,192.678 191.154,199.860 191.154 C 207.041 191.154,209.741 190.198,211.075 187.181 C 212.127 184.803,214.689 185.544,215.712 188.521 C 216.253 190.095,215.843 191.061,213.807 193.008 C 211.342 195.365,211.321 195.368,199.860 195.368 C 188.398 195.368,188.377 195.365,185.912 193.008 C 183.876 191.061,183.466 190.095,184.007 188.521 C 185.030 185.544,187.592 184.803,188.644 187.181 " stroke="none" fill="#340474" fill-rule="evenodd"></path></g></svg>